HIERARCHY
ROOT Hips
{
    OFFSET   0.000000   0.000000   0.000000
    CHANNELS 6 Xposition Yposition Zposition Zrotation Xrotation Yrotation
    JOINT Chest
    {
        OFFSET   0.000000   8.007240   0.000000
        CHANNELS 3 Zrotation Xrotation Yrotation
        JOINT Chest2
        {
            OFFSET   0.000000  22.077100   0.000000
            CHANNELS 3 Zrotation Xrotation Yrotation
            JOINT Neck
            {
                OFFSET   0.000000  23.254800   0.000000
                CHANNELS 3 Zrotation Xrotation Yrotation
                JOINT Head
                {
                    OFFSET   0.000000  14.370000   1.956600
                    CHANNELS 3 Zrotation Xrotation Yrotation
                    End Site
                    {
                        OFFSET   0.000000  19.566000   0.000000
                    }
                }
            }
            JOINT LeftCollar
            {
                OFFSET   3.911900  19.017000  -0.467064
                CHANNELS 3 Zrotation Xrotation Yrotation
                JOINT LeftShoulder
                {
                    OFFSET  10.383700   0.000000   0.000000
                    CHANNELS 3 Zrotation Xrotation Yrotation
                    JOINT LeftElbow
                    {
                        OFFSET  26.662100   0.001476   0.000517
                        CHANNELS 3 Zrotation Xrotation Yrotation
                        JOINT LeftWrist
                        {
                            OFFSET  28.869000  -0.000025  -0.000106
                            CHANNELS 3 Zrotation Xrotation Yrotation
                            JOINT LeftFinger0
                            {
                                OFFSET   2.044660  -2.323460   3.252850
                                CHANNELS 3 Zrotation Xrotation Yrotation
                                JOINT LeftFinger01
                                {
                                    OFFSET   3.088130   0.000000   0.000000
                                    CHANNELS 3 Zrotation Xrotation Yrotation
                                    JOINT LeftFinger02
                                    {
                                        OFFSET   2.639460   0.000000   0.000000
                                        CHANNELS 3 Zrotation Xrotation Yrotation
                                        End Site
                                        {
                                            OFFSET   2.582190   0.000000   0.000000
                                        }
                                    }
                                }
                            }
                            JOINT LeftFinger1
                            {
                                OFFSET   8.364480   0.000000   3.252850
                                CHANNELS 3 Zrotation Xrotation Yrotation
                                JOINT LeftFinger11
                                {
                                    OFFSET   4.646930   0.000000   0.000000
                                    CHANNELS 3 Zrotation Xrotation Yrotation
                                    JOINT LeftFinger12
                                    {
                                        OFFSET   2.323460   0.000000   0.000000
                                        CHANNELS 3 Zrotation Xrotation Yrotation
                                        End Site
                                        {
                                            OFFSET   2.273050   0.000000   0.000000
                                        }
                                    }
                                }
                            }
                            JOINT LeftFinger2
                            {
                                OFFSET   8.364490   0.000015   1.078090
                                CHANNELS 3 Zrotation Xrotation Yrotation
                                JOINT LeftFinger21
                                {
                                    OFFSET   5.111620   0.000000   0.000000
                                    CHANNELS 3 Zrotation Xrotation Yrotation
                                    JOINT LeftFinger22
                                    {
                                        OFFSET   2.788160   0.000016   0.000000
                                        CHANNELS 3 Zrotation Xrotation Yrotation
                                        End Site
                                        {
                                            OFFSET   2.727660   0.000000   0.000000
                                        }
                                    }
                                }
                            }
                            JOINT LeftFinger3
                            {
                                OFFSET   7.899780   0.000017  -1.078090
                                CHANNELS 3 Zrotation Xrotation Yrotation
                                JOINT LeftFinger31
                                {
                                    OFFSET   4.646930   0.000000   0.000000
                                    CHANNELS 3 Zrotation Xrotation Yrotation
                                    JOINT LeftFinger32
                                    {
                                        OFFSET   2.323470   0.000000   0.000000
                                        CHANNELS 3 Zrotation Xrotation Yrotation
                                        End Site
                                        {
                                            OFFSET   2.273050   0.000000   0.000000
                                        }
                                    }
                                }
                            }
                            JOINT LeftFinger4
                            {
                                OFFSET   7.435090   0.000000  -3.252850
                                CHANNELS 3 Zrotation Xrotation Yrotation
                                JOINT LeftFinger41
                                {
                                    OFFSET   3.717550   0.000000   0.000000
                                    CHANNELS 3 Zrotation Xrotation Yrotation
                                    JOINT LeftFinger42
                                    {
                                        OFFSET   1.858770   0.000000   0.000000
                                        CHANNELS 3 Zrotation Xrotation Yrotation
                                        End Site
                                        {
                                            OFFSET   1.818440   0.000000   0.000000
                                        }
                                    }
                                }
                            }
                        }
                    }
                }
            }
            JOINT RightCollar
            {
                OFFSET  -3.911900  19.017000  -0.467063
                CHANNELS 3 Zrotation Xrotation Yrotation
                JOINT RightShoulder
                {
                    OFFSET -10.383700   0.000019   0.000000
                    CHANNELS 3 Zrotation Xrotation Yrotation
                    JOINT RightElbow
                    {
                        OFFSET -26.662100   0.001175   0.000102
                        CHANNELS 3 Zrotation Xrotation Yrotation
                        JOINT RightWrist
                        {
                            OFFSET -28.869000   0.000016  -0.000079
                            CHANNELS 3 Zrotation Xrotation Yrotation
                            JOINT RightFinger0
                            {
                                OFFSET  -2.044660  -2.323490   3.252850
                                CHANNELS 3 Zrotation Xrotation Yrotation
                                JOINT RightFinger01
                                {
                                    OFFSET  -3.088140   0.000000   0.000000
                                    CHANNELS 3 Zrotation Xrotation Yrotation
                                    JOINT RightFinger02
                                    {
                                        OFFSET  -2.639460   0.000000   0.000000
                                        CHANNELS 3 Zrotation Xrotation Yrotation
                                        End Site
                                        {
                                            OFFSET  -2.582190   0.000000   0.000000
                                        }
                                    }
                                }
                            }
                            JOINT RightFinger1
                            {
                                OFFSET  -8.364480   0.000000   3.252850
                                CHANNELS 3 Zrotation Xrotation Yrotation
                                JOINT RightFinger11
                                {
                                    OFFSET  -4.646930   0.000000   0.000000
                                    CHANNELS 3 Zrotation Xrotation Yrotation
                                    JOINT RightFinger12
                                    {
                                        OFFSET  -2.323470   0.000000   0.000000
                                        CHANNELS 3 Zrotation Xrotation Yrotation
                                        End Site
                                        {
                                            OFFSET  -2.273050   0.000000   0.000000
                                        }
                                    }
                                }
                            }
                            JOINT RightFinger2
                            {
                                OFFSET  -8.364480   0.000000   1.078090
                                CHANNELS 3 Zrotation Xrotation Yrotation
                                JOINT RightFinger21
                                {
                                    OFFSET  -5.111620   0.000000   0.000000
                                    CHANNELS 3 Zrotation Xrotation Yrotation
                                    JOINT RightFinger22
                                    {
                                        OFFSET  -2.788160   0.000000   0.000000
                                        CHANNELS 3 Zrotation Xrotation Yrotation
                                        End Site
                                        {
                                            OFFSET  -2.727660   0.000000   0.000000
                                        }
                                    }
                                }
                            }
                            JOINT RightFinger3
                            {
                                OFFSET  -7.899780   0.000000  -1.078090
                                CHANNELS 3 Zrotation Xrotation Yrotation
                                JOINT RightFinger31
                                {
                                    OFFSET  -4.646930   0.000000   0.000000
                                    CHANNELS 3 Zrotation Xrotation Yrotation
                                    JOINT RightFinger32
                                    {
                                        OFFSET  -2.323470   0.000000   0.000000
                                        CHANNELS 3 Zrotation Xrotation Yrotation
                                        End Site
                                        {
                                            OFFSET  -2.273050   0.000000   0.000000
                                        }
                                    }
                                }
                            }
                            JOINT RightFinger4
                            {
                                OFFSET  -7.435090   0.000000  -3.252850
                                CHANNELS 3 Zrotation Xrotation Yrotation
                                JOINT RightFinger41
                                {
                                    OFFSET  -3.717550   0.000000   0.000000
                                    CHANNELS 3 Zrotation Xrotation Yrotation
                                    JOINT RightFinger42
                                    {
                                        OFFSET  -1.858770   0.000000   0.000000
                                        CHANNELS 3 Zrotation Xrotation Yrotation
                                        End Site
                                        {
                                            OFFSET  -1.818440   0.000000   0.000000
                                        }
                                    }
                                }
                            }
                        }
                    }
                }
            }
        }
    }
    JOINT LeftHip
    {
        OFFSET   9.783040   0.000000   0.000000
        CHANNELS 3 Zrotation Xrotation Yrotation
        JOINT LeftKnee
        {
            OFFSET   0.000032 -41.789100  -0.002222
            CHANNELS 3 Zrotation Xrotation Yrotation
            JOINT LeftAnkle
            {
                OFFSET   0.000087 -41.133200  -0.000135
                CHANNELS 3 Zrotation Xrotation Yrotation
                JOINT LeftToe
                {
                    OFFSET   0.000000  -6.358960  14.674500
                    CHANNELS 3 Zrotation Xrotation Yrotation
                    End Site
                    {
                        OFFSET   0.000000   0.000000   3.913200
                    }
                }
            }
        }
    }
    JOINT RightHip
    {
        OFFSET  -9.783040   0.000000   0.000000
        CHANNELS 3 Zrotation Xrotation Yrotation
        JOINT RightKnee
        {
            OFFSET   0.000047 -41.789100  -0.000896
            CHANNELS 3 Zrotation Xrotation Yrotation
            JOINT RightAnkle
            {
                OFFSET  -0.000117 -41.133300  -0.000248
                CHANNELS 3 Zrotation Xrotation Yrotation
                JOINT RightToe
                {
                    OFFSET   0.000000  -6.358970  14.674500
                    CHANNELS 3 Zrotation Xrotation Yrotation
                    End Site
                    {
                        OFFSET   0.000000   0.000000   3.913200
                    }
                }
            }
        }
    }
}
MOTION
Frames: 4
Frame Time:   0.016667
 -0.378133  89.536700   2.020500  -3.235940 -10.404000  -0.662990   2.779740   7.077680   0.628589   5.545920  14.177400   0.918051   0.074451  -3.233640   0.006467   0.123344  -6.557220   2.839990  -9.351550  -0.045005  -3.033970 -66.916700  22.239800 -12.450100  -2.351850  -5.822020 -11.474400   4.674340  -8.551630   9.719010  42.643200  32.036900 -71.505600  -6.577940  -0.002912  -0.000239   1.711040   0.004464   0.002306 -26.780700   5.240290 -10.254400 -22.296500  -0.000106   0.000846 -15.607600  -0.000072   0.000549 -27.373000   2.912080  -5.604490 -29.285600   0.006581   0.003673 -19.504300   0.001262   0.006386 -27.020900   0.584761  -1.146460 -27.111500   0.001220  -0.000339 -18.056300   0.001968  -0.000717 -29.372400   0.631235  -1.121530 -44.067700   0.001738  -0.000412 -29.349000   0.002099   0.000256  11.289200  -2.948380  14.635400  54.960100  25.973300   7.570820  -5.729340 -10.430400 110.114000  29.086400 -25.967600  51.740000 -47.333700  34.462100  71.867200   9.508850   0.002600  -0.001904  -0.245572   0.002677  -0.001039  36.139300  -3.668200  -5.003590  29.699900  -0.000119  -0.000171  20.789900  -0.005716   0.000992  28.433600  -3.953050  -7.255980  38.736800  -0.000562   0.004917  25.798700  -0.001549  -0.003789  26.987800  -3.768600  -7.353130  27.958000  -0.001898   0.004768  18.620000   0.004349   0.003226  29.362500  -4.070360  -7.190920  44.427200  -0.001746  -0.001905  29.588600   0.000094   0.003023   4.403380  15.359900   1.501650   0.786045   0.293326   3.220660  -3.591270  -4.088950   0.649010  -0.000000   0.000000   0.000000   2.561040   9.437540  -2.289530   0.910691   5.649190  -3.119940  -3.606560  -3.590240  -1.525160  -0.000000   0.000000   0.000000
 -0.430204  89.532300   2.029120  -3.224080 -10.349700  -0.688098   2.794870   7.038340   0.594871   5.579490  14.097200   0.849898   0.028817  -3.201640   0.006177   0.047679  -6.492350   2.894930  -9.356850   0.020573  -2.997120 -66.960400  22.267000 -12.450000  -2.328860  -5.966230 -11.211300   4.618190  -8.566170   9.777950  42.698500  32.054200 -71.474900  -6.676030  -0.002876  -0.000261   1.661980   0.004463   0.002301 -26.783100   5.253010 -10.280400 -22.300300  -0.000081   0.000860 -15.610200  -0.000066   0.000552 -27.370500   2.909870  -5.600480 -29.266300   0.006500   0.003604 -19.491400   0.001254   0.006332 -27.004700   0.605618  -1.188060 -27.075900   0.001222  -0.000265 -18.032600   0.001967  -0.000724 -29.346200   0.653610  -1.162340 -44.029200   0.001739  -0.000411 -29.323400   0.002100   0.000255  11.308000  -2.907850  14.670400  54.856900  25.905000   7.670140  -5.690400 -10.408000 110.207000  29.089900 -25.623000  51.595800 -47.313200  34.304500  71.586300   9.352120   0.002795  -0.001804  -0.323931   0.002702  -0.000904  36.145800  -3.668180  -5.001950  29.705100   0.000000  -0.000326  20.793600  -0.005641   0.000947  28.438900  -3.948460  -7.246040  38.841300  -0.000425   0.004577  25.868300  -0.001837  -0.004217  26.985300  -3.762790  -7.343790  27.945700  -0.001750   0.004585  18.611800   0.004249   0.003088  29.369400  -4.065880  -7.180900  44.437000  -0.001293  -0.001848  29.595000  -0.000137   0.002841   4.417750  15.312200   1.511090   0.793077   0.325259   3.233960  -3.618970  -4.112130   0.651193   0.000000   0.000000  -0.000000   2.548350   9.406340  -2.311010   0.943747   5.624740  -3.100460  -3.623300  -3.590220  -1.487270  -0.000000   0.000000   0.000000
 -0.475404  89.527700   2.041970  -3.214780 -10.317900  -0.682137   2.813300   7.010670   0.559153   5.621060  14.040300   0.776711  -0.009634  -3.176670   0.005871  -0.016062  -6.441830   2.923800  -9.361580   0.075800  -2.969690 -66.956700  22.417900 -12.530200  -2.315000  -6.183260 -10.924600   4.538860  -8.508900   9.859030  42.718400  32.120700 -71.546500  -6.575280  -0.002836  -0.000254   1.712370   0.004466   0.002298 -26.772400   5.253000 -10.285100 -22.293000  -0.000031   0.000869 -15.605000  -0.000076   0.000547 -27.364500   2.942040  -5.663440 -29.245800   0.006420   0.003535 -19.477700   0.001243   0.006276 -26.970800   0.614512  -1.207360 -27.000300   0.001221  -0.000186 -17.982200   0.001967  -0.000729 -29.285600   0.662842  -1.181520 -43.939200   0.001734  -0.000413 -29.263500   0.002099   0.000257  11.318500  -2.884780  14.688500  54.781000  25.821600   7.717070  -5.662220 -10.370700 110.281000  29.188000 -25.385200  51.550700 -47.416800  34.269600  71.431800   9.162910   0.003007  -0.001699  -0.418524   0.002729  -0.000756  36.131200  -3.668410  -5.005750  29.693300   0.000114  -0.000532  20.785300  -0.005526   0.000908  28.446200  -3.943050  -7.234040  38.966000  -0.000278   0.004248  25.951400  -0.002146  -0.004641  26.997500  -3.758520  -7.331240  27.995000  -0.001594   0.004407  18.644600   0.004153   0.002944  29.448000  -4.070370  -7.163370  44.555200  -0.000841  -0.001787  29.673700  -0.000373   0.002655   4.424880  15.310300   1.506010   0.813981   0.296210   3.238510  -3.641600  -4.111270   0.648844   0.000000   0.000000   0.000000   2.537480   9.399900  -2.301760   0.988321   5.595900  -3.125490  -3.636780  -3.590900  -1.464830  -0.000000   0.000000  -0.000000
 -0.518798  89.523400   2.055510  -3.208230 -10.297600  -0.665737   2.832650   6.990810   0.526291   5.664150  13.999100   0.708822  -0.035770  -3.158730   0.005545  -0.059295  -6.405530   2.933620  -9.365860   0.120060  -2.955060 -66.920300  22.632100 -12.662200  -2.305160  -6.418510 -10.638500   4.451080  -8.410430   9.910090  42.748100  32.194700 -71.654100  -6.404000  -0.002796  -0.000247   1.798020   0.004470   0.002297 -26.761800   5.253000 -10.289800 -22.283300   0.000000   0.000876 -15.598200  -0.000087   0.000542 -27.353900   2.998110  -5.773190 -29.226200   0.006341   0.003466 -19.464600   0.001232   0.006220 -26.936500   0.626408  -1.232690 -26.935400   0.001220  -0.000112 -17.939000   0.001967  -0.000731 -29.235200   0.675382  -1.206560 -43.863300   0.001729  -0.000416 -29.213000   0.002098   0.000260  11.322800  -2.877770  14.694800  54.726500  25.774100   7.729390  -5.632330 -10.339800 110.332000  29.281200 -25.217100  51.516200 -47.564000  34.291000  71.351200   8.992330   0.003225  -0.001589  -0.503810   0.002761  -0.000596  36.110200  -3.668620  -5.011190  29.676200   0.000238  -0.000748  20.773300  -0.005395   0.000865  28.453300  -3.937640  -7.222100  39.090200  -0.000125   0.003916  26.034100  -0.002468  -0.005066  27.018600  -3.755040  -7.318360  28.085300  -0.001430   0.004223  18.704800   0.004052   0.002797  29.559100  -4.076620  -7.144790  44.720600  -0.000381  -0.001711  29.783900  -0.000612   0.002467   4.435400  15.308500   1.491790   0.836875   0.267162   3.239160  -3.662220  -4.110400   0.645043  -0.000000   0.000000   0.000000   2.531820   9.399050  -2.289420   1.032680   5.565040  -3.163160  -3.648940  -3.592000  -1.456340   0.000000   0.000000   0.000000
